# xmcd
#
# Track frame offsets:
#	150
#	14362
#	32062
#	47362
#	66273
#	82640
#	100866
#	116316
#	132441
#	153615
#	170750
#	191097
#	211507
#
# Disc length: 3049 seconds
#
# Revision: 1
# Processed by: cddbd v1.4PL0 Copyright (c) Steve Scherf et al.
# Submitted via: audiograbber 1.80.04
#
DISCID=a10be70d
DTITLE=Blue Stuff - Roba blues
DYEAR=1999
DGENRE=Blues
TTITLE0=Impiegato
TTITLE1=Il blues della strada
TTITLE2=Appena conosciuta
TTITLE3=E' asciuto pazzo 'o padrone
TTITLE4=Pienz' a salute
TTITLE5=Tempi duri
TTITLE6=Città di frontiera
TTITLE7=Compagno di strada
TTITLE8=Picchia più forte
TTITLE9=L'acqua è poca
TTITLE10=Afragola shuffle
TTITLE11=Mo' chi pava
TTITLE12=E' asciuto pazzo 'o padrone ('92)
EXTD=
EXTT0=
EXTT1=
EXTT2=
EXTT3=
EXTT4=
EXTT5=
EXTT6=
EXTT7=
EXTT8=
EXTT9=
EXTT10=
EXTT11=
EXTT12=
PLAYORDER=
